<svg xmlns="http://www.w3.org/2000/svg" style="margin:auto;background:#f1f2f3;display:block;z-index:1;position:relative"
     width="1920" height="895" preserveAspectRatio="xMidYMid" viewBox="0 0 1920 895">
<g transform="translate(960,447.5) scale(1,1) translate(-960,-447.5)"><defs>
<linearGradient id="lg-0.6640364317353369" x1="0" x2="0" y1="0" y2="1">
  <stop stop-color="#ff8139" offset="0.39"></stop>
  <stop stop-color="#6601a0" offset="0.6950000000000001"></stop>
  <stop stop-color="#6601a0" offset="1"></stop>
</linearGradient>
<linearGradient id="fg-lg-0.6640364317353369" x1="0" x2="0" y1="0" y2="1">
  <stop stop-color="#ff8139" stop-opacity="1" offset="0.39"></stop>
  <stop stop-color="#6601a0" stop-opacity="0.66" offset="0.6950000000000001"></stop>
  <stop stop-color="#6601a0" stop-opacity="0" offset="1"></stop>
</linearGradient>
<style type="text/css">
  path { fill: none; stroke: #ff8139; stroke-width: 2px }
</style>
</defs>
<rect x="0" y="0" width="1920" height="895" fill="url(#lg-0.6640364317353369)"></rect><path d="M0 349.05 L-16992.000000000004 895"></path><path d="M14.76923076923077 349.05 L-16715.815384615387 895"></path><path d="M29.53846153846154 349.05 L-16439.630769230775 895"></path><path d="M44.30769230769231 349.05 L-16163.446153846156 895"></path><path d="M59.07692307692308 349.05 L-15887.261538461542 895"></path><path d="M73.84615384615384 349.05 L-15611.076923076926 895"></path><path d="M88.61538461538461 349.05 L-15334.892307692311 895"></path><path d="M103.38461538461539 349.05 L-15058.707692307695 895"></path><path d="M118.15384615384616 349.05 L-14782.52307692308 895"></path><path d="M132.92307692307693 349.05 L-14506.338461538464 895"></path><path d="M147.69230769230768 349.05 L-14230.15384615385 895"></path><path d="M162.46153846153845 349.05 L-13953.969230769235 895"></path><path d="M177.23076923076923 349.05 L-13677.784615384619 895"></path><path d="M192 349.05 L-13401.600000000002 895"></path><path d="M206.76923076923077 349.05 L-13125.415384615388 895"></path><path d="M221.53846153846155 349.05 L-12849.230769230773 895"></path><path d="M236.30769230769232 349.05 L-12573.046153846157 895"></path><path d="M251.07692307692307 349.05 L-12296.86153846154 895"></path><path d="M265.84615384615387 349.05 L-12020.676923076926 895"></path><path d="M280.61538461538464 349.05 L-11744.492307692311 895"></path><path d="M295.38461538461536 349.05 L-11468.307692307695 895"></path><path d="M310.15384615384613 349.05 L-11192.123076923079 895"></path><path d="M324.9230769230769 349.05 L-10915.938461538464 895"></path><path d="M339.6923076923077 349.05 L-10639.75384615385 895"></path><path d="M354.46153846153845 349.05 L-10363.569230769233 895"></path><path d="M369.2307692307692 349.05 L-10087.384615384617 895"></path><path d="M384 349.05 L-9811.2 895"></path><path d="M398.7692307692308 349.05 L-9535.015384615386 895"></path><path d="M413.53846153846155 349.05 L-9258.830769230772 895"></path><path d="M428.3076923076923 349.05 L-8982.646153846155 895"></path><path d="M443.0769230769231 349.05 L-8706.46153846154 895"></path><path d="M457.84615384615387 349.05 L-8430.276923076925 895"></path><path d="M472.61538461538464 349.05 L-8154.09230769231 895"></path><path d="M487.38461538461536 349.05 L-7877.907692307694 895"></path><path d="M502.15384615384613 349.05 L-7601.723076923079 895"></path><path d="M516.9230769230769 349.05 L-7325.538461538463 895"></path><path d="M531.6923076923077 349.05 L-7049.353846153848 895"></path><path d="M546.4615384615385 349.05 L-6773.169230769232 895"></path><path d="M561.2307692307693 349.05 L-6496.984615384617 895"></path><path d="M576 349.05 L-6220.800000000001 895"></path><path d="M590.7692307692307 349.05 L-5944.615384615387 895"></path><path d="M605.5384615384615 349.05 L-5668.43076923077 895"></path><path d="M620.3076923076923 349.05 L-5392.246153846156 895"></path><path d="M635.0769230769231 349.05 L-5116.061538461541 895"></path><path d="M649.8461538461538 349.05 L-4839.876923076925 895"></path><path d="M664.6153846153846 349.05 L-4563.69230769231 895"></path><path d="M679.3846153846154 349.05 L-4287.507692307694 895"></path><path d="M694.1538461538462 349.05 L-4011.3230769230795 895"></path><path d="M708.9230769230769 349.05 L-3735.1384615384613 895"></path><path d="M723.6923076923077 349.05 L-3458.953846153847 895"></path><path d="M738.4615384615385 349.05 L-3182.7692307692305 895"></path><path d="M753.2307692307693 349.05 L-2906.584615384616 895"></path><path d="M768 349.05 L-2630.3999999999996 895"></path><path d="M782.7692307692307 349.05 L-2354.215384615385 895"></path><path d="M797.5384615384615 349.05 L-2078.030769230769 895"></path><path d="M812.3076923076923 349.05 L-1801.8461538461543 895"></path><path d="M827.0769230769231 349.05 L-1525.661538461538 895"></path><path d="M841.8461538461538 349.05 L-1249.4769230769234 895"></path><path d="M856.6153846153846 349.05 L-973.2923076923071 895"></path><path d="M871.3846153846154 349.05 L-697.1076923076926 895"></path><path d="M886.1538461538462 349.05 L-420.92307692307804 895"></path><path d="M900.9230769230769 349.05 L-144.7384615384617 895"></path><path d="M915.6923076923077 349.05 L131.44615384615463 895"></path><path d="M930.4615384615385 349.05 L407.63076923077097 895"></path><path d="M945.2307692307693 349.05 L683.8153846153837 895"></path><path d="M960 349.05 L960 895"></path><path d="M974.7692307692307 349.05 L1236.1846153846163 895"></path><path d="M989.5384615384615 349.05 L1512.369230769229 895"></path><path d="M1004.3076923076923 349.05 L1788.5538461538454 895"></path><path d="M1019.0769230769231 349.05 L2064.7384615384617 895"></path><path d="M1033.8461538461538 349.05 L2340.923076923078 895"></path><path d="M1048.6153846153845 349.05 L2617.1076923076907 895"></path><path d="M1063.3846153846155 349.05 L2893.292307692307 895"></path><path d="M1078.1538461538462 349.05 L3169.4769230769234 895"></path><path d="M1092.923076923077 349.05 L3445.6615384615397 895"></path><path d="M1107.6923076923076 349.05 L3721.8461538461524 895"></path><path d="M1122.4615384615386 349.05 L3998.030769230769 895"></path><path d="M1137.2307692307693 349.05 L4274.215384615385 895"></path><path d="M1152 349.05 L4550.4000000000015 895"></path><path d="M1166.7692307692307 349.05 L4826.584615384614 895"></path><path d="M1181.5384615384614 349.05 L5102.7692307692305 895"></path><path d="M1196.3076923076924 349.05 L5378.953846153847 895"></path><path d="M1211.076923076923 349.05 L5655.138461538463 895"></path><path d="M1225.8461538461538 349.05 L5931.323076923076 895"></path><path d="M1240.6153846153845 349.05 L6207.507692307692 895"></path><path d="M1255.3846153846155 349.05 L6483.6923076923085 895"></path><path d="M1270.1538461538462 349.05 L6759.876923076921 895"></path><path d="M1284.923076923077 349.05 L7036.061538461538 895"></path><path d="M1299.6923076923076 349.05 L7312.246153846154 895"></path><path d="M1314.4615384615386 349.05 L7588.43076923077 895"></path><path d="M1329.2307692307693 349.05 L7864.615384615383 895"></path><path d="M1344 349.05 L8140.799999999999 895"></path><path d="M1358.7692307692307 349.05 L8416.984615384616 895"></path><path d="M1373.5384615384614 349.05 L8693.169230769232 895"></path><path d="M1388.3076923076924 349.05 L8969.353846153845 895"></path><path d="M1403.076923076923 349.05 L9245.538461538461 895"></path><path d="M1417.8461538461538 349.05 L9521.723076923081 895"></path><path d="M1432.6153846153845 349.05 L9797.907692307697 895"></path><path d="M1447.3846153846155 349.05 L10074.09230769231 895"></path><path d="M1462.1538461538462 349.05 L10350.276923076926 895"></path><path d="M1476.923076923077 349.05 L10626.461538461543 895"></path><path d="M1491.6923076923076 349.05 L10902.646153846159 895"></path><path d="M1506.4615384615386 349.05 L11178.830769230772 895"></path><path d="M1521.2307692307693 349.05 L11455.015384615388 895"></path><path d="M1536 349.05 L11731.200000000004 895"></path><path d="M1550.7692307692307 349.05 L12007.38461538462 895"></path><path d="M1565.5384615384614 349.05 L12283.569230769233 895"></path><path d="M1580.3076923076924 349.05 L12559.75384615385 895"></path><path d="M1595.076923076923 349.05 L12835.938461538466 895"></path><path d="M1609.8461538461538 349.05 L13112.123076923079 895"></path><path d="M1624.6153846153845 349.05 L13388.307692307695 895"></path><path d="M1639.3846153846155 349.05 L13664.492307692311 895"></path><path d="M1654.1538461538462 349.05 L13940.676923076928 895"></path><path d="M1668.923076923077 349.05 L14216.86153846154 895"></path><path d="M1683.6923076923076 349.05 L14493.046153846157 895"></path><path d="M1698.4615384615386 349.05 L14769.230769230773 895"></path><path d="M1713.2307692307693 349.05 L15045.41538461539 895"></path><path d="M1728 349.05 L15321.600000000002 895"></path><path d="M1742.7692307692307 349.05 L15597.784615384619 895"></path><path d="M1757.5384615384614 349.05 L15873.969230769235 895"></path><path d="M1772.3076923076924 349.05 L16150.153846153848 895"></path><path d="M1787.076923076923 349.05 L16426.338461538468 895"></path><path d="M1801.8461538461538 349.05 L16702.52307692308 895"></path><path d="M1816.6153846153845 349.05 L16978.707692307693 895"></path><path d="M1831.3846153846155 349.05 L17254.892307692313 895"></path><path d="M1846.1538461538462 349.05 L17531.076923076926 895"></path><path d="M1860.923076923077 349.05 L17807.261538461546 895"></path><path d="M1875.6923076923076 349.05 L18083.44615384616 895"></path><path d="M1890.4615384615386 349.05 L18359.63076923077 895"></path><path d="M1905.2307692307693 349.05 L18635.81538461539 895"></path><path d="M1920 349.05 L18912.000000000004 895"></path><g>
<path d="M0 349.05 L1920 349.05"></path>

</g><g>
<path d="M0 353.1850059171598 L1920 353.1850059171598"></path>

</g><g>
<path d="M0 361.4550177514793 L1920 361.4550177514793"></path>

</g><g>
<path d="M0 373.8600355029586 L1920 373.8600355029586"></path>

</g><g>
<path d="M0 390.40005917159766 L1920 390.40005917159766"></path>

</g><g>
<path d="M0 411.0750887573965 L1920 411.0750887573965"></path>

</g><g>
<path d="M0 435.88512426035504 L1920 435.88512426035504"></path>

</g><g>
<path d="M0 464.8301656804734 L1920 464.8301656804734"></path>

</g><g>
<path d="M0 497.9102130177515 L1920 497.9102130177515"></path>

</g><g>
<path d="M0 535.1252662721894 L1920 535.1252662721894"></path>

</g><g>
<path d="M0 576.475325443787 L1920 576.475325443787"></path>

</g><g>
<path d="M0 621.9603905325444 L1920 621.9603905325444"></path>

</g><g>
<path d="M0 671.5804615384615 L1920 671.5804615384615"></path>

</g><g>
<path d="M0 725.3355384615384 L1920 725.3355384615384"></path>

</g><g>
<path d="M0 783.225621301775 L1920 783.225621301775"></path>

</g><g>
<path d="M0 845.2507100591715 L1920 845.2507100591715"></path>

</g><g>
<path d="M0 911.4108047337277 L1920 911.4108047337277"></path>

</g><rect x="0" y="0" width="1920" height="895" fill="url(#fg-lg-0.6640364317353369)"></rect></g>
</svg>