<svg xmlns="http://www.w3.org/2000/svg" version="1.1" width="1920"
     height="1080" preserveAspectRatio="none" viewBox="0 0 1920 1080"><g mask="url(&quot;#SvgjsMask1292&quot;)" fill="none"><rect width="1920" height="1080" x="0" y="0" fill="rgba(8, 16, 57, 1)"></rect><path d="M1676.349,1138.313C1742.793,1133.522,1805.298,1104.909,1839.255,1047.598C1873.885,989.151,1874.11,917.738,1842.748,857.474C1808.629,791.912,1750.226,736.69,1676.349,734.56C1599.306,732.339,1532.89,781.756,1492.461,847.376C1449.641,916.878,1423.33,1005.437,1466.946,1074.443C1508.735,1140.559,1598.337,1143.938,1676.349,1138.313" fill="rgba(4, 51, 97, 0.4)" class="triangle-float2"></path><path d="M1732.586,600.276C1838.207,597.279,1925.746,525.132,1975.892,432.125C2023.361,344.083,2020.562,240.787,1974.196,152.159C1923.789,55.808,1841.323,-32.152,1732.586,-32.95C1622.839,-33.756,1538.36,52.799,1484.753,148.566C1432.612,241.715,1412.78,353.058,1464.128,446.646C1517.282,543.527,1622.125,603.41,1732.586,600.276" fill="rgba(4, 51, 97, 0.4)" class="triangle-float2"></path><path d="M1461.366,186.648C1507.199,184.621,1537.233,142.244,1556.836,100.765C1573.337,65.849,1570.633,27.1,1553.01,-7.264C1533.377,-45.548,1504.353,-83.595,1461.366,-85.396C1416.057,-87.294,1377.837,-54.943,1355.383,-15.543C1333.171,23.432,1329.234,70.176,1350.061,109.908C1372.485,152.688,1413.112,188.782,1461.366,186.648" fill="rgba(4, 51, 97, 0.4)" class="triangle-float3"></path><path d="M1949.996,749.217C2031.316,747.909,2094.455,682.937,2129.917,609.744C2160.925,545.746,2147.042,474.167,2113.693,411.357C2077.553,343.291,2026.911,275.696,1949.996,270.883C1866.21,265.64,1787.056,314.874,1746.503,388.38C1707.206,459.61,1719.801,544.839,1759.762,615.699C1800.55,688.025,1866.973,750.553,1949.996,749.217" fill="rgba(4, 51, 97, 0.4)" class="triangle-float1"></path><path d="M465.484,829.017C528.735,833.23,586.881,792.472,617.011,736.699C645.76,683.482,639.023,618.806,606.648,567.714C576.505,520.144,521.77,499.417,465.484,497.569C405.033,495.584,336.187,504.748,307.295,557.885C279.11,609.721,315.569,667.639,345.303,718.602C374.686,768.964,407.306,825.142,465.484,829.017" fill="rgba(4, 51, 97, 0.4)" class="triangle-float2"></path><path d="M400.93,1189.743C472.166,1192.429,542.594,1165.36,582.029,1105.974C626.045,1039.689,640.973,954.643,603.744,884.322C564.315,809.845,485.193,764.958,400.93,763.894C314.774,762.806,226.493,801.485,189.045,879.085C154.802,950.043,197.639,1028.065,242.034,1093.155C279.467,1148.038,334.544,1187.24,400.93,1189.743" fill="rgba(4, 51, 97, 0.4)" class="triangle-float2"></path><path d="M941.244,342.867C1021.409,346.901,1108.037,323.748,1147.535,253.873C1186.596,184.77,1158.765,100.741,1115.857,33.958C1076.886,-26.698,1013.34,-67.403,941.244,-67.204C869.488,-67.006,803.998,-27.324,768.296,34.92C732.77,96.857,733.069,172.519,768.033,234.775C803.752,298.375,868.392,339.201,941.244,342.867" fill="rgba(4, 51, 97, 0.4)" class="triangle-float3"></path><path d="M413.985,395.695C488.966,390.994,557.083,358.614,599.439,296.564C648.928,224.063,689.568,131.741,646.292,55.369C602.656,-21.638,502.494,-31.235,413.985,-30.717C326.691,-30.206,234.057,-15.038,186.344,58.064C134.675,137.228,130.5,244.268,183.348,322.65C231.666,394.315,327.722,401.103,413.985,395.695" fill="rgba(4, 51, 97, 0.4)" class="triangle-float1"></path><path d="M196.873,1045.314C231.656,1043.668,254.142,1012.875,271.611,982.752C289.161,952.489,306.671,916.606,289.032,886.394C271.479,856.33,231.682,855.25,196.873,854.743C160.74,854.216,119.614,853.325,99.94,883.637C79.091,915.758,89.094,957.616,108.785,990.459C127.849,1022.256,159.84,1047.067,196.873,1045.314" fill="rgba(4, 51, 97, 0.4)" class="triangle-float1"></path><path d="M62.029,446.8C137.848,447.193,223.244,447.058,264.595,383.506C308.608,315.863,292.629,226.546,249.874,158.102C209.695,93.781,137.857,57.949,62.029,59.231C-11.541,60.475,-76.466,101.668,-115.126,164.274C-156.092,230.615,-178.349,315.365,-136.928,381.423C-97.181,444.812,-12.79,446.412,62.029,446.8" fill="rgba(4, 51, 97, 0.4)" class="triangle-float3"></path></g><defs><mask id="SvgjsMask1292"><rect width="1920" height="1080" fill="#ffffff"></rect></mask><style>
                @keyframes float1 {
                    0%{transform: translate(0, 0)}
                    50%{transform: translate(-50px, 0)}
                    100%{transform: translate(0, 0)}
                }

                .triangle-float1 {
                    animation: float1 5s infinite;
                }

                @keyframes float2 {
                    0%{transform: translate(0, 0)}
                    50%{transform: translate(-20px, -5px)}
                    100%{transform: translate(0, 0)}
                }

                .triangle-float2 {
                    animation: float2 4s infinite;
                }

                @keyframes float3 {
                    0%{transform: translate(0, 0)}
                    50%{transform: translate(0, -50px)}
                    100%{transform: translate(0, 0)}
                }

                .triangle-float3 {
                    animation: float3 6s infinite;
                }
            </style></defs></svg>