<svg id="visual" viewBox="0 0 1920 1080" width="1920" height="1080" xmlns="http://www.w3.org/2000/svg" version="1.1"><path d="M0 252L24.7 252.3C49.3 252.7 98.7 253.3 147.8 260.8C197 268.3 246 282.7 295.2 294.5C344.3 306.3 393.7 315.7 443 297.8C492.3 280 541.7 235 590.8 227.2C640 219.3 689 248.7 738.2 264.7C787.3 280.7 836.7 283.3 886 251.8C935.3 220.3 984.7 154.7 1034 130.3C1083.3 106 1132.7 123 1181.8 145.2C1231 167.3 1280 194.7 1329.2 211.7C1378.3 228.7 1427.7 235.3 1477 227.3C1526.3 219.3 1575.7 196.7 1624.8 196.8C1674 197 1723 220 1772.2 221.3C1821.3 222.7 1870.7 202.3 1895.3 192.2L1920 182" fill="none" stroke-linecap="round" stroke-linejoin="miter" stroke="#fb9744" stroke-width="40"></path></svg>