<svg id="visual" viewBox="0 0 900 900" width="900" height="900" xmlns="http://www.w3.org/2000/svg" version="1.1"><path d="M0 176L13.7 157.8C27.3 139.7 54.7 103.3 82 104.3C109.3 105.3 136.7 143.7 163.8 152.7C191 161.7 218 141.3 245.2 120.2C272.3 99 299.7 77 327 75C354.3 73 381.7 91 409 90.8C436.3 90.7 463.7 72.3 491 66C518.3 59.7 545.7 65.3 573 77.2C600.3 89 627.7 107 654.8 127.2C682 147.3 709 169.7 736.2 178.2C763.3 186.7 790.7 181.3 818 166C845.3 150.7 872.7 125.3 886.3 112.7L900 100" fill="none" stroke-linecap="round" stroke-linejoin="miter" stroke="#fb9744" stroke-width="40"></path></svg>